<?xml version="1.0" standalone="no"?><!DOCTYPE svg PUBLIC "-//W3C//DTD SVG 1.1//EN" "http://www.w3.org/Graphics/SVG/1.1/DTD/svg11.dtd"><svg t="1709792146900" class="icon" viewBox="0 0 1024 1024" version="1.1" xmlns="http://www.w3.org/2000/svg" p-id="1536" xmlns:xlink="http://www.w3.org/1999/xlink" width="48" height="48"><path d="M853.333333 454.144a341.333333 341.333333 0 1 0-455.111111 321.479111c-72.647111 25.201778-120.092444 72.533333-120.092444 126.122667h458.24c0-53.646222-44.202667-100.920889-113.777778-126.122667a339.911111 339.911111 0 0 0 230.684444-321.479111z m-334.961777 239.559111a179.655111 179.655111 0 1 1 0-359.310222 179.655111 179.655111 0 1 1 0 359.310222z" fill="#0e932e" p-id="1537" data-spm-anchor-id="a313x.search_index.0.i0.37253a81B17Cz8" class="selected"></path><path d="M512 435.2a90.282667 90.282667 0 0 0-88.405333 88.234667A88.291556 88.291556 0 1 0 512 435.2z" fill="#0e932e" p-id="1538" data-spm-anchor-id="a313x.search_index.0.i5.37253a81B17Cz8" class="selected"></path></svg>