<?xml version="1.0" standalone="no"?><!DOCTYPE svg PUBLIC "-//W3C//DTD SVG 1.1//EN" "http://www.w3.org/Graphics/SVG/1.1/DTD/svg11.dtd"><svg t="1709874337933" class="icon" viewBox="0 0 1024 1024" version="1.1" xmlns="http://www.w3.org/2000/svg" p-id="2864" width="48" height="48" xmlns:xlink="http://www.w3.org/1999/xlink"><path d="M512 0c187.733333 0 341.333333 146.773333 341.333333 329.386667v11.946666c-3.413333 109.226667-66.56 230.4-168.96 354.986667-49.493333 58.026667-102.4 114.346667-160.426666 163.84l-11.946667 10.24-11.946667-10.24-15.36-13.653333c-51.2-46.08-100.693333-97.28-145.066666-150.186667C237.226667 571.733333 175.786667 448.853333 170.666667 341.333333v-11.946666C170.666667 150.186667 319.146667 3.413333 503.466667 0h8.533333z" fill="#FF4D4F" p-id="2865"></path><path d="M430.08 366.933333l-47.786667-52.906666c-6.826667-8.533333-8.533333-20.48-1.706666-27.306667l11.946666-13.653333 192.853334 196.266666-22.186667 13.653334c-6.826667 3.413333-15.36 3.413333-22.186667 0l-110.933333-116.053334z m-6.826667 10.24l30.72 32.426667-20.48 34.133333c-3.413333 5.12-8.533333 8.533333-13.653333 10.24H382.293333v32.426667c0 6.826667-3.413333 15.36-10.24 18.773333-6.826667 3.413333-15.36 3.413333-22.186666 0-5.12-3.413333-8.533333-10.24-8.533334-18.773333v-85.333333c0-6.826667 3.413333-15.36 10.24-18.773334 6.826667-3.413333 15.36-3.413333 22.186667 0s10.24 10.24 10.24 18.773334v10.24h18.773333l20.48-34.133334zM404.48 256l49.493333-61.44c3.413333-5.12 8.533333-6.826667 15.36-8.533333s11.946667 1.706667 17.066667 6.826666l191.146667 187.733334c5.12 5.12 6.826667 11.946667 6.826666 17.066666 0 6.826667-5.12 11.946667-10.24 15.36l-69.973333 42.666667L404.48 256z" fill="#FFFFFF" p-id="2866"></path><path d="M204.8 921.6a307.2 102.4 0 1 0 614.4 0 307.2 102.4 0 1 0-614.4 0Z" fill="#FF4D4F" opacity=".366" p-id="2867"></path><path d="M409.6 921.6a102.4 34.133333 0 1 0 204.8 0 102.4 34.133333 0 1 0-204.8 0Z" fill="#FF4D4F" p-id="2868"></path></svg>